# xmcd
#
# Track frame offsets: 
#        150
#        19072
#        34004
#        52262
#        71153
#        88149
#        104657
#        124418
#        143051
#        156922
#        170349
#
# Disc length: 2449 seconds
#
# Revision: 0
# Processed by: cddbd v1.5.2PL0 Copyright (c) Steve Scherf et al.
# Submitted via: ExactAudioCopyFreeDBPlugin 1.0
#
DISCID=a1098f0b
DTITLE=HP Lange Big Gumbo - I Feel Fine
DYEAR=2019
DGENRE=Blues
TTITLE0=I Feel Fine
TTITLE1=The Moon Is High
TTITLE2=The Boll Weevil Blues
TTITLE3=Travelling Riverside Blues
TTITLE4=Leaving Aberdeen
TTITLE5=In The Dark
TTITLE6=The Cuckoo
TTITLE7=Pony Blues
TTITLE8=No Lovin'
TTITLE9=Creole Belle
TTITLE10=Poor Howard
EXTD=
EXTT0=
EXTT1=
EXTT2=
EXTT3=
EXTT4=
EXTT5=
EXTT6=
EXTT7=
EXTT8=
EXTT9=
EXTT10=
PLAYORDER=
